<svg width="32" height="36" viewBox="0 0 32 36" fill="none" xmlns="http://www.w3.org/2000/svg">
<path d="M14.3557 35.2737C2.2475 20.4631 0 18.9431 0 13.5C0 6.04413 7.16342 0 16 0C24.8366 0 32 6.04413 32 13.5C32 18.9431 29.7525 20.4631 17.6443 35.2737C16.8498 36.2421 15.1502 36.2421 14.3557 35.2737ZM16 19.125C19.6819 19.125 22.6667 16.6066 22.6667 13.5C22.6667 10.3934 19.6819 7.875 16 7.875C12.3181 7.875 9.33333 10.3934 9.33333 13.5C9.33333 16.6066 12.3181 19.125 16 19.125Z" fill="#13A7E6"/>
</svg>
