<svg width="40" height="49" viewBox="0 0 40 49" fill="none" xmlns="http://www.w3.org/2000/svg">
<path d="M17.9446 48.0114C2.80938 27.8526 0 25.7837 0 18.375C0 8.22673 8.95427 0 20 0C31.0457 0 40 8.22673 40 18.375C40 25.7837 37.1906 27.8526 22.0554 48.0114C21.0622 49.3296 18.9377 49.3295 17.9446 48.0114ZM20 26.0312C24.6024 26.0312 28.3333 22.6034 28.3333 18.375C28.3333 14.1465 24.6024 10.7187 20 10.7187C15.3976 10.7187 11.6667 14.1465 11.6667 18.375C11.6667 22.6034 15.3976 26.0312 20 26.0312Z" fill="white"/>
</svg>
